<svg width="32" height="33" viewBox="0 0 32 33" fill="none" xmlns="http://www.w3.org/2000/svg">
<path d="M31.8425 16.787L28.3766 11.682L31.8425 6.57708C32.0045 6.33358 32.0438 6.02964 31.9495 5.75314C31.8543 5.47665 31.6364 5.25965 31.359 5.16815L20.0466 1.41818C19.6419 1.28174 19.2043 1.43555 18.9699 1.78711L16 6.24202L13.03 1.78711C12.7938 1.43374 12.3525 1.2808 11.9533 1.41818L0.640889 5.16815C0.363517 5.25971 0.145581 5.47671 0.0503942 5.75314C-0.0439176 6.02964 -0.0045429 6.33358 0.157518 6.57714L3.62337 11.6821L0.157581 16.787C-0.0044804 17.0305 -0.0438551 17.3345 0.0504567 17.611C0.145643 17.8875 0.363579 18.1045 0.640952 18.196L11.9534 21.946C12.3515 22.0798 12.7944 21.9304 13.03 21.577L16 17.1221L18.97 21.577C19.2059 21.9308 19.649 22.0798 20.0467 21.946L31.3591 18.196C31.6365 18.1044 31.8544 17.8874 31.9496 17.611C32.0439 17.3345 32.0045 17.0306 31.8425 16.787ZM16 14.4442L7.71365 11.6821L16 8.91999L24.2864 11.6821L16 14.4442Z" fill="#007EA7"/>
<path d="M20.6397 23.7255C19.4597 24.1213 18.1256 23.692 17.4098 22.6177L16 20.5029L14.59 22.6177C13.8755 23.69 12.543 24.1232 11.3554 23.7236L3.8125 21.2095V26.6826C3.8125 27.0863 4.07069 27.4443 4.45337 27.5716L15.6978 31.3197C15.7317 31.3316 15.7655 31.3408 15.7994 31.3481C15.7994 31.3481 15.8003 31.3481 15.8003 31.349H15.8013C15.8672 31.3628 15.934 31.3701 16 31.3701C16.0705 31.3701 16.14 31.3618 16.2096 31.3463C16.2407 31.339 16.2709 31.3307 16.3012 31.3207L27.5465 27.5716C27.9291 27.4443 28.1873 27.0863 28.1873 26.6826V21.2096L20.6397 23.7255Z" fill="#007EA7"/>
</svg>
