<svg width="30" height="31" viewBox="0 0 30 31" fill="none" xmlns="http://www.w3.org/2000/svg">
<g clip-path="url(#clip0_83479_2754)">
<path d="M3.75 0.369141C2.38662 0.369141 1.25 1.50576 1.25 2.86914V29.1191C1.25007 29.8095 1.80967 30.3691 2.5 30.3691H17.5C18.1903 30.3691 18.7499 29.8095 18.75 29.1191V23.4941C18.75 23.149 19.0298 22.8691 19.375 22.8691H20C20.7052 22.8691 21.25 23.414 21.25 24.1191V25.3691C21.25 27.4254 22.9437 29.1191 25 29.1191C27.0563 29.1191 28.75 27.4254 28.75 25.3691V9.11914C28.75 7.9399 28.1944 6.8262 27.251 6.11865L23.2495 3.11816C22.6388 2.66023 21.8582 2.88173 21.499 3.36963C21.0895 3.92589 21.1974 4.70632 21.7505 5.12012L23.2495 6.24316C23.5648 6.4793 23.7502 6.85025 23.75 7.24414V10.3691C23.75 11.5221 24.5589 12.511 25.6323 12.791C25.9656 12.8779 26.25 13.149 26.25 13.4941V25.3691C26.25 26.0743 25.7052 26.6191 25 26.6191C24.2948 26.6191 23.75 26.0743 23.75 25.3691V24.1191C23.75 22.0629 22.0563 20.3691 20 20.3691H19.375C19.0298 20.3691 18.75 20.0893 18.75 19.7441V2.86914C18.75 1.50576 17.6134 0.369141 16.25 0.369141L3.75 0.369141ZM4.375 2.86914H15.625C15.9712 2.86914 16.25 3.14789 16.25 3.49414V12.2441C16.25 12.5904 15.9712 12.8691 15.625 12.8691H4.375C4.02875 12.8691 3.75 12.5904 3.75 12.2441V3.49414C3.75 3.14789 4.02875 2.86914 4.375 2.86914Z" fill="#007EA7"/>
</g>
<defs>
<clipPath id="clip0_83479_2754">
<rect width="30" height="30" fill="white" transform="translate(0 0.369141)"/>
</clipPath>
</defs>
</svg>
