<svg width="30" height="31" viewBox="0 0 30 31" fill="none" xmlns="http://www.w3.org/2000/svg">
<g clip-path="url(#clip0_83479_2762)">
<path fill-rule="evenodd" clip-rule="evenodd" d="M29.9998 15.7908C29.9998 13.4183 29.3861 11.1908 28.3111 9.25452C32.8936 -1.11798 23.3998 0.400771 22.8711 0.504521C20.8598 0.898271 18.9998 1.52952 17.2836 2.33077C17.0288 2.31659 16.7737 2.3095 16.5186 2.30952C10.1123 2.30952 4.74982 6.77702 3.37732 12.767C6.75482 8.97952 9.11732 7.45077 10.5323 6.83952C10.3073 7.04119 10.0857 7.24494 9.86732 7.45077L9.65482 7.65702C9.51065 7.79369 9.36815 7.93202 9.22732 8.07202L8.98232 8.32202C8.85732 8.44785 8.7344 8.57452 8.61357 8.70202L8.35857 8.97202C7.8619 9.50224 7.38249 10.0484 6.92107 10.6095C6.74803 10.8181 6.57719 11.0286 6.40857 11.2408L6.15857 11.557L5.92982 11.857L5.67232 12.197L5.49732 12.4383C4.98928 13.1317 4.50239 13.8403 4.03732 14.5633L4.03482 14.567C3.91899 14.7479 3.80649 14.9262 3.69732 15.102L3.67982 15.1308C3.56982 15.3066 3.46357 15.4808 3.36107 15.6533L3.34982 15.6708C3.07232 16.1349 2.8169 16.5779 2.58357 16.9995C1.36982 19.1995 0.778571 20.737 0.753571 20.8283C-3.08143 34.5358 8.88482 28.747 10.5548 27.8833C12.4089 28.7988 14.4495 29.2736 16.5173 29.2708C22.3798 29.2708 27.3673 25.5295 29.2236 20.3045H22.1411C21.0923 22.0745 19.0748 23.2745 16.7561 23.2745C13.3598 23.2745 10.6061 20.7008 10.6061 17.527H29.8886C29.9627 16.9579 29.9998 16.3799 29.9998 15.7908ZM27.4811 2.52452C28.6423 3.30827 29.5736 4.53702 27.9736 8.68202C26.4282 6.19588 24.118 4.27821 21.3898 3.21702C22.6373 2.61452 25.7273 1.34077 27.4811 2.52452ZM2.80982 27.8558C1.86357 26.8858 1.69732 24.5245 3.78357 20.2208C4.83416 23.2288 6.91299 25.7693 9.65357 27.3945C8.30357 28.1383 4.71607 29.812 2.80982 27.8558ZM10.5748 13.8395C10.6823 10.7545 13.3686 8.28452 16.6673 8.28452C19.9673 8.28452 22.6511 10.7545 22.7598 13.8395H10.5748Z" fill="#007EA7"/>
</g>
<defs>
<clipPath id="clip0_83479_2762">
<rect width="30" height="30" fill="white" transform="translate(0 0.369141)"/>
</clipPath>
</defs>
</svg>
