<svg width="34" height="35" viewBox="0 0 34 35" fill="none" xmlns="http://www.w3.org/2000/svg">
<g clip-path="url(#clip0_83479_2726)">
<path d="M13.0123 13.1045C12.4622 13.1045 12.0146 13.552 12.0146 14.1021C12.0146 14.6522 12.4622 15.0998 13.0123 15.0998H14.01V14.1021C14.01 13.552 13.5624 13.1045 13.0123 13.1045Z" fill="#007EA7"/>
<path d="M20.9879 13.1045C20.4377 13.1045 19.9902 13.552 19.9902 14.1021V15.0998H20.9879C21.5379 15.0998 21.9855 14.6522 21.9855 14.1021C21.9855 13.552 21.538 13.1045 20.9879 13.1045Z" fill="#007EA7"/>
<path d="M17.9984 17.0918H16.0029V25.7306H17.9984V17.0918Z" fill="#007EA7"/>
<path d="M23.8554 32.043H10.1445V34.3692H23.8554V32.043Z" fill="#007EA7"/>
<path d="M25.0579 3.78339C23.0265 1.68562 20.3033 0.475563 17.3898 0.375954C14.3331 0.271563 11.4397 1.36966 9.24298 3.46803C7.04912 5.56381 5.8214 8.39909 5.78594 11.4517C5.75692 13.9505 6.53275 16.3239 8.02934 18.3153C9.44685 20.2014 10.1201 22.5617 10.1438 25.7311H14.0106V17.0924H13.0129C11.3643 17.0924 10.023 15.7511 10.023 14.1025C10.023 12.4539 11.3643 11.1127 13.0129 11.1127C14.6615 11.1127 16.0027 12.4539 16.0027 14.1025V15.1002H17.9981V14.1025C17.9981 12.4539 19.3393 11.1127 20.9879 11.1127C22.6365 11.1127 23.9778 12.4539 23.9778 14.1025C23.9778 15.7511 22.6365 17.0924 20.9879 17.0924H19.9903V25.7311H23.8574C23.8905 22.5611 24.5711 20.1906 25.9922 18.2874C27.4468 16.3396 28.2156 14.0217 28.2156 11.5845C28.2156 8.65668 27.0942 5.88621 25.0579 3.78339Z" fill="#007EA7"/>
<path d="M23.8554 27.7236H10.1445V30.0512H23.8554V27.7236Z" fill="#007EA7"/>
</g>
<defs>
<clipPath id="clip0_83479_2726">
<rect width="34" height="34" fill="white" transform="translate(0 0.369141)"/>
</clipPath>
</defs>
</svg>
