<svg width="21" height="21" viewBox="0 0 21 21" fill="none" xmlns="http://www.w3.org/2000/svg">
<path d="M6.50975 4.20786C6.50953 4.65205 6.33287 5.07795 6.01863 5.39188C5.70438 5.70581 5.2783 5.88205 4.83412 5.88182C4.38993 5.8816 3.96403 5.70494 3.6501 5.3907C3.33617 5.07645 3.15993 4.65037 3.16016 4.20619C3.16038 3.762 3.33704 3.3361 3.65129 3.02217C3.96553 2.70824 4.39161 2.532 4.83579 2.53223C5.27998 2.53245 5.70588 2.70911 6.01981 3.02336C6.33374 3.3376 6.50998 3.76368 6.50975 4.20786ZM6.56 7.12201H3.2104V17.6063H6.56V7.12201ZM11.8524 7.12201H8.51951V17.6063H11.8189V12.1045C11.8189 9.03966 15.8133 8.75494 15.8133 12.1045V17.6063H19.121V10.9657C19.121 5.79892 13.209 5.99152 11.8189 8.52884L11.8524 7.12201Z" fill="#FCFCFC"/>
</svg>
