<svg width="58" height="47" viewBox="0 0 58 47" fill="none" xmlns="http://www.w3.org/2000/svg">
<path fill-rule="evenodd" clip-rule="evenodd" d="M0.875 23.118H57.125V26.8545H29.8921L38.6343 40.1374H19.3657L28.1079 26.8545H0.875V23.118ZM19.3657 43.4946H38.6343V46.6332H19.3657V43.4946ZM49.1452 1.75578C50.025 1.9652 50.8652 2.31395 51.6352 2.78809L53.2532 2.06949L55.1602 3.97648L54.4419 5.59402C54.9163 6.36418 55.265 7.20465 55.4743 8.08461L57.125 8.71988V11.4167L55.4738 12.0522C55.2645 12.932 54.9157 13.7722 54.4416 14.5422L55.1602 16.1602L53.2532 18.0672L51.6357 17.3488C50.8655 17.8231 50.025 18.1719 49.145 18.3812L48.5096 20.0319H45.8129L45.1774 18.3807C44.2977 18.1714 43.4574 17.8225 42.6874 17.3485L41.0694 18.0671L39.1624 16.1601L39.8807 14.5427C39.4064 13.7725 39.0577 12.932 38.8483 12.0521L37.1976 11.4167V8.71988L38.8486 8.08438C39.058 7.20453 39.4067 6.3643 39.8809 5.59426L39.1624 3.97637L41.0694 2.06938L42.6874 2.78797C43.4574 2.31383 44.2977 1.96508 45.1774 1.75566L45.813 0.104492H48.5098L49.1452 1.75578ZM47.1614 5.36504C44.5637 5.36504 42.4582 7.47055 42.4582 10.0684C42.4582 12.6661 44.5637 14.7716 47.1614 14.7716C49.7592 14.7716 51.8646 12.6661 51.8646 10.0684C51.8646 7.47055 49.7591 5.36504 47.1614 5.36504ZM12.8226 1.75578C13.7023 1.9652 14.5426 2.31395 15.3126 2.78809L16.9306 2.06949L18.8376 3.97648L18.1191 5.59402C18.5935 6.36418 18.9423 7.20465 19.1516 8.08461L20.8023 8.72V11.4168L19.1511 12.0523C18.9418 12.9321 18.5929 13.7723 18.1189 14.5423L18.8375 16.1604L16.9305 18.0673L15.3131 17.3489C14.5429 17.8232 13.7023 18.172 12.8224 18.3813L12.187 20.032H9.49027L8.85477 18.3808C7.97504 18.1715 7.1348 17.8227 6.36477 17.3486L4.74676 18.0672L2.83977 16.1602L3.55824 14.5428C3.08387 13.7727 2.73523 12.9321 2.52582 12.0522L0.875 11.4167V8.71988L2.52594 8.08438C2.73535 7.20453 3.0841 6.3643 3.55824 5.59426L2.83977 3.97637L4.74676 2.06938L6.36477 2.78797C7.1348 2.31383 7.97504 1.96508 8.85477 1.75566L9.49039 0.104492H12.1872L12.8226 1.75578ZM10.8386 5.36504C8.24082 5.36504 6.13543 7.47055 6.13543 10.0684C6.13543 12.6661 8.24094 14.7716 10.8386 14.7716C13.4363 14.7716 15.5418 12.6661 15.5418 10.0684C15.542 7.47055 13.4364 5.36504 10.8386 5.36504Z" fill="#007EA7"/>
</svg>
