<svg width="18" height="19" viewBox="0 0 18 19" fill="none" xmlns="http://www.w3.org/2000/svg">
<rect width="18" height="18" transform="translate(0 0.369141)" fill="#03B57A"/>
<g clip-path="url(#clip0_83479_2801)">
<path d="M8.11778 4.90096C7.72061 6.07914 7.32344 7.25733 7.24531 7.5057L7.09556 7.9706L4.23723 7.98334L1.37891 8.00245L3.63822 9.58822C4.88182 10.4607 5.91056 11.2122 5.93009 11.2504C5.94311 11.295 5.5785 12.4732 5.1097 13.8679C4.64091 15.2626 4.26979 16.4089 4.28281 16.4217C4.30234 16.4471 7.70108 14.0717 13.4633 10.0149L16.3151 8.00245L13.4568 7.98334L10.5985 7.9706L10.4487 7.5057C10.2339 6.837 8.86655 2.78023 8.85353 2.7675C8.84701 2.75476 8.51495 3.71641 8.11778 4.90096Z" fill="#FEFEFE"/>
<path d="M10.4228 12.8733C9.6024 13.0771 8.92526 13.2554 8.91223 13.2681C8.89921 13.2809 9.90191 14.0132 11.1455 14.8921C12.3891 15.7773 13.4113 16.4842 13.4244 16.4715C13.4374 16.4651 13.1509 15.5608 12.7863 14.4718C12.2654 12.9179 12.0961 12.4912 12.0115 12.4975C11.9529 12.4975 11.2367 12.6695 10.4228 12.8733Z" fill="#FEFEFE"/>
</g>
<defs>
<clipPath id="clip0_83479_2801">
<rect width="15.0404" height="13.8834" fill="white" transform="translate(1.32617 2.68359)"/>
</clipPath>
</defs>
</svg>
